HIERARCHY
ROOT hip
{
	OFFSET 0.00000 0.00000 0.00000
	CHANNELS 6 Xposition Yposition Zposition Zrotation Yrotation Xrotation 
	JOINT rightuplegdummy
	{
		OFFSET 0 0 0
		CHANNELS 3 Zrotation Yrotation Xrotation
		JOINT rightupleg
		{
			OFFSET -3.52197 -3.41223 0.04002
			CHANNELS 3 Zrotation Yrotation Xrotation
			JOINT rightleg
			{
				OFFSET 0.00006 -17.42390 1.60435
				CHANNELS 3 Zrotation Yrotation Xrotation
				JOINT rightfoot
				{
					OFFSET 0.06153 -16.50078 -1.63901
					CHANNELS 3 Zrotation Yrotation Xrotation
					JOINT righttoes
					{
						OFFSET 0.00298 -1.73825 3.34613
						CHANNELS 3 Zrotation Yrotation Xrotation
						End Site
						{
							OFFSET 0.00480 -0.05416 3.85043
						}
					}
				}
			}
		}
	}
	JOINT spinedummy
	{
		OFFSET 0 0 0
		CHANNELS 3 Zrotation Yrotation Xrotation
		JOINT spine
		{
			OFFSET 0.00000 4.68130 0.00000
			CHANNELS 3 Zrotation Yrotation Xrotation
			JOINT spine1
			{
				OFFSET -0.00000 10.10138 0.05002
				CHANNELS 3 Zrotation Yrotation Xrotation
				JOINT headdummy
				{
					OFFSET 0 0 0
					CHANNELS 3 Zrotation Yrotation Xrotation
					JOINT head
					{
						OFFSET -0.00000 3.43865 0.00438
						CHANNELS 3 Zrotation Yrotation Xrotation
						End Site
						{
							OFFSET -0.11417 5.02924 0.98962
						}
					}
				}
				JOINT leftshoulder1dummy
				{
					OFFSET 0 0 0
					CHANNELS 3 Zrotation Yrotation Xrotation
					JOINT leftshoulder1
					{
						OFFSET 3.53937 -0.14262 -0.08662
						CHANNELS 3 Zrotation Yrotation Xrotation
						JOINT leftarm
						{
							OFFSET 4.04833 -0.00133 0.12681
							CHANNELS 3 Zrotation Yrotation Xrotation
							JOINT leftforearm
							{
								OFFSET 10.33880 -0.01036 -0.55515
								CHANNELS 3 Zrotation Yrotation Xrotation
								JOINT lefthand
								{
									OFFSET 8.69677 0.07543 0.40060
									CHANNELS 3 Zrotation Yrotation Xrotation
									End Site
									{
										OFFSET 5.28377 -0.21905 0.59205
									}
								}
							}
						}
					}
				}
				JOINT rightshoulderdummy
				{
					OFFSET 0 0 0
					CHANNELS 3 Zrotation Yrotation Xrotation
					JOINT rightshoulder
					{
						OFFSET -3.53937 -0.14262 -0.08660
						CHANNELS 3 Zrotation Yrotation Xrotation
						JOINT rightarm
						{
							OFFSET -4.04833 -0.00133 0.12683
							CHANNELS 3 Zrotation Yrotation Xrotation
							JOINT rightforearm
							{
								OFFSET -10.37987 -0.01039 -0.55511
								CHANNELS 3 Zrotation Yrotation Xrotation
								JOINT righthand
								{
									OFFSET -8.67398 0.07538 0.40058
									CHANNELS 3 Zrotation Yrotation Xrotation
									End Site
									{
										OFFSET -5.24810 -0.21916 0.59204
									}
								}
							}
						}
					}
				}
			}
		}
	}
	JOINT leftuplegdummy
	{
		OFFSET 0 0 0
		CHANNELS 3 Zrotation Yrotation Xrotation
		JOINT leftupleg
		{
			OFFSET 3.52197 -3.41223 0.04002
			CHANNELS 3 Zrotation Yrotation Xrotation
			JOINT leftleg
			{
				OFFSET -0.00012 -17.42399 1.60337
				CHANNELS 3 Zrotation Yrotation Xrotation
				JOINT leftfoot
				{
					OFFSET -0.09972 -16.50070 -1.63802
					CHANNELS 3 Zrotation Yrotation Xrotation
					JOINT lefttoes
					{
						OFFSET -0.01575 -1.73823 3.34611
						CHANNELS 3 Zrotation Yrotation Xrotation
						End Site
						{
							OFFSET 0.03150 -0.01868 3.85031
						}
					}
				}
			}
		}
	}
}
MOTION
Frames: 15
Frame Time: 0.033333
-0.2139 39.4583 26.0623 5.9357 -73.6728 -1.5514 0.0000 -0.0000 0.0000 -10.5310 1.3407 -11.5467 -0.0219 0.2816 30.6336 8.8003 0.1470 -13.9251 0.0000 0.0000 0.0000 0.0000 -0.0000 0.0000 -0.4864 0.8851 -0.9960 -1.0367 1.1303 7.4554 -0.0000 -0.0000 -0.0000 -21.1716 45.0935 -34.9827 -0.0000 -0.0000 -0.0000 -32.7003 -11.7010 5.8837 -31.4252 12.6560 12.1694 179.1093 -62.8752 -161.4079 2.6942 -3.3825 -0.1740 -0.0000 -0.0000 -0.0000 31.4546 6.4971 3.7455 34.6728 -19.0292 17.7715 -178.6133 75.8184 -162.1633 -3.9008 7.6956 -0.3744 0.0000 -0.0000 0.0000 11.9357 -1.6683 -12.1687 3.8017 5.9295 24.6025 -17.9989 1.7432 -0.3676 0.0000 0.0000 0.0000
0.0289 38.0912 26.3241 3.9334 -73.2353 -0.4700 0.0000 -0.0000 0.0000 -10.2913 1.6289 -12.7720 -1.2701 -1.1559 35.7881 8.1217 0.6373 -21.4039 0.0000 0.0000 0.0000 0.0000 -0.0000 0.0000 1.8463 1.2314 0.1587 -2.6705 1.8284 7.7069 -0.0000 -0.0000 -0.0000 -22.5623 44.5121 -36.7224 -0.0000 -0.0000 -0.0000 -34.1371 -11.9001 6.1834 -25.9124 7.7540 11.0417 178.7515 -66.6145 -158.8992 4.7072 -3.4001 -0.3262 -0.0000 -0.0000 -0.0000 31.4360 6.4381 3.7217 32.6194 -15.3846 17.9776 -177.8689 77.9790 -158.9225 -5.0111 8.6938 -0.5349 0.0000 -0.0000 0.0000 12.2695 -2.0705 -14.2890 4.1887 4.9377 31.8809 -19.4316 0.1150 -11.1465 0.0000 0.0000 0.0000
0.2281 37.4180 26.5505 3.1865 -73.1823 0.0724 0.0000 -0.0000 0.0000 -10.2854 2.0150 -13.8216 -2.5866 -2.4239 38.4825 7.8641 0.8110 -24.3775 0.0000 0.0000 0.0000 0.0000 -0.0000 0.0000 3.7927 1.8953 -0.6102 -4.8843 3.0169 9.8097 -0.0000 -0.0000 -0.0000 -23.1781 43.5018 -39.2574 -0.0000 -0.0000 -0.0000 -36.4226 -12.4864 6.7936 -23.7929 3.1276 7.5018 177.7936 -70.2288 -152.7045 5.5947 -3.2164 -0.3865 -0.0000 -0.0000 -0.0000 31.5244 6.3246 3.6879 33.2375 -13.0509 15.6014 -176.4643 80.7343 -155.0761 -5.8565 8.9297 -0.6479 0.0000 -0.0000 0.0000 11.7432 -3.5475 -15.3598 6.4804 7.2420 34.6604 -17.7518 -0.4939 -15.0638 0.0000 0.0000 0.0000
0.2810 37.9178 26.7440 3.3446 -72.9302 0.1207 0.0000 -0.0000 0.0000 -10.6683 2.0073 -12.3604 -2.2454 -2.3405 35.0340 8.3829 0.7129 -22.1429 0.0000 0.0000 0.0000 0.0000 -0.0000 0.0000 3.0547 2.3025 -1.3614 -3.9263 3.2060 10.2556 -0.0000 -0.0000 -0.0000 -23.1270 43.3318 -40.2946 -0.0000 -0.0000 -0.0000 -38.3971 -13.0970 7.3904 -28.9848 4.0830 3.2936 177.5356 -70.8862 -151.1067 5.1536 -3.0770 -0.3494 -0.0000 -0.0000 -0.0000 32.3638 6.4116 3.8033 35.4700 -13.9323 13.4036 -176.2710 81.4875 -155.2022 -6.5911 8.4106 -0.7134 0.0000 -0.0000 0.0000 11.0853 -5.5636 -13.6852 7.3995 9.7275 30.6400 -17.1566 -0.1376 -12.7417 0.0000 0.0000 0.0000
0.2343 39.3315 26.8258 2.5422 -72.3688 2.0361 0.0000 -0.0000 0.0000 -10.5563 0.9564 -10.0167 -1.1352 -1.4405 26.7500 9.2193 0.1411 -13.7258 0.0000 0.0000 0.0000 0.0000 -0.0000 0.0000 1.8688 1.9745 -2.5792 -2.3031 2.4790 9.2620 -0.0000 -0.0000 -0.0000 -22.4759 44.7073 -38.4862 -0.0000 -0.0000 -0.0000 -38.0923 -12.9741 7.2833 -38.6030 8.3326 0.5345 178.2040 -69.7515 -155.7938 6.6969 -2.1271 -0.4142 -0.0000 -0.0000 -0.0000 33.0009 6.5141 3.9066 39.4361 -15.3831 13.1696 -176.3293 81.6563 -155.6497 -6.2481 8.3409 -0.6697 0.0000 -0.0000 0.0000 11.3404 -3.2699 -11.8224 4.5356 7.7556 22.8272 -17.7163 1.1320 -4.2404 0.0000 0.0000 0.0000
0.1868 40.8381 26.7544 1.6626 -71.6329 5.0308 0.0000 -0.0000 0.0000 -9.9727 -0.9184 -9.0534 -0.7418 -1.0827 18.7926 10.0769 -0.6943 -3.6004 0.0000 0.0000 0.0000 0.0000 -0.0000 0.0000 1.2561 1.6921 -4.1266 -2.0464 2.1041 7.3533 -0.0000 -0.0000 -0.0000 -20.4664 45.7625 -34.6765 -0.0000 -0.0000 -0.0000 -37.3553 -12.8113 7.0865 -44.8619 12.5464 -0.9293 178.8229 -68.8154 -160.6404 7.2488 -1.9265 -0.4390 -0.0000 -0.0000 -0.0000 33.9321 6.6504 4.0550 42.6150 -17.2616 12.8445 -176.3674 81.3514 -155.3809 -5.5647 8.3113 -0.5876 0.0000 -0.0000 0.0000 11.6267 3.9984 -11.9531 0.8090 0.6886 15.3915 -18.5284 3.1869 8.3143 0.0000 0.0000 0.0000
0.2393 41.7587 26.6466 0.6995 -70.8818 7.3445 0.0000 -0.0000 0.0000 -9.0890 -2.8063 -8.9173 -1.1189 -1.5475 15.6124 10.1058 -1.0670 0.7238 0.0000 0.0000 0.0000 0.0000 -0.0000 0.0000 2.0244 1.7448 -5.0811 -3.0238 2.3403 6.4752 -0.0000 -0.0000 -0.0000 -18.9866 45.3957 -33.0688 -0.0000 -0.0000 -0.0000 -36.6575 -12.8352 6.9792 -45.5506 14.6102 -1.1215 179.0092 -67.6908 -161.8520 4.3056 -2.4619 -0.2694 -0.0000 -0.0000 -0.0000 35.1502 6.9178 4.2903 43.2631 -18.3734 12.3573 -177.0226 79.9621 -156.5855 -3.3825 8.5548 -0.3336 0.0000 -0.0000 0.0000 12.1601 7.6087 -12.3950 -0.4495 -3.6009 10.5567 -19.5598 4.8946 17.1320 0.0000 0.0000 0.0000
0.4702 42.0240 26.5295 -0.3584 -70.0378 8.0105 0.0000 -0.0000 0.0000 -8.5254 -2.5566 -8.5582 -1.2134 -2.0989 17.6697 10.0649 -1.0295 0.3165 0.0000 0.0000 0.0000 0.0000 -0.0000 0.0000 3.0978 1.6601 -3.7143 -3.5612 2.3613 6.1031 -0.0000 -0.0000 -0.0000 -19.5615 44.4143 -34.1262 -0.0000 -0.0000 -0.0000 -35.7415 -12.7158 6.7759 -42.9634 13.8196 0.5219 178.9242 -66.7651 -160.7835 3.4660 -2.5762 -0.2151 -0.0000 -0.0000 -0.0000 34.8444 6.9699 4.2789 42.3314 -17.0310 13.8290 -177.4252 78.7746 -157.4818 -3.8552 8.0938 -0.3785 0.0000 -0.0000 0.0000 13.1540 5.4669 -12.5345 0.0749 -4.3747 10.3862 -19.6029 5.2575 19.1054 0.0000 0.0000 0.0000
0.7587 41.6720 26.3791 0.1799 -69.4880 6.7668 0.0000 -0.0000 0.0000 -8.7057 -0.8927 -8.4690 -0.4991 -0.5391 22.0809 10.9972 -0.9906 -1.1213 0.0000 0.0000 0.0000 0.0000 -0.0000 0.0000 3.0640 1.5407 -1.7404 -3.5002 2.2810 5.8182 -0.0000 -0.0000 -0.0000 -20.2891 43.3440 -35.1596 -0.0000 -0.0000 -0.0000 -34.4585 -12.3199 6.4037 -39.4080 10.8774 3.1887 178.8515 -66.7933 -160.1146 4.6444 -2.1955 -0.2837 -0.0000 -0.0000 -0.0000 33.1616 6.7633 4.0202 40.6738 -14.4072 16.1325 -177.6357 78.1212 -158.0090 -3.5593 7.2483 -0.3258 0.0000 -0.0000 0.0000 14.0459 0.8058 -13.0830 -0.3341 -4.0666 13.9090 -19.3826 4.6472 15.9657 0.0000 0.0000 0.0000
0.9776 40.6284 26.2676 2.2790 -68.7670 4.7809 0.0000 -0.0000 0.0000 -9.5397 0.2134 -8.5601 0.2536 0.7817 25.9411 10.7543 -0.4681 -6.7314 0.0000 0.0000 0.0000 0.0000 -0.0000 0.0000 2.5542 1.5602 -1.1009 -3.5412 2.3503 5.5841 -0.0000 -0.0000 -0.0000 -19.6121 42.4024 -34.9595 -0.0000 -0.0000 -0.0000 -33.7505 -12.0649 6.1888 -34.2094 6.5426 5.4664 178.9145 -68.4396 -161.2346 4.6756 -2.1537 -0.2842 -0.0000 -0.0000 -0.0000 32.3956 6.6953 3.9153 37.3305 -12.2596 17.0912 -178.0434 78.0304 -160.2210 -4.8806 7.1178 -0.4658 0.0000 -0.0000 0.0000 14.1283 -3.1171 -13.9726 -1.0487 -3.2001 17.7818 -19.7912 3.1533 6.8427 0.0000 0.0000 0.0000
1.1626 39.1667 26.1983 3.5728 -68.4911 3.5766 0.0000 -0.0000 0.0000 -9.8367 0.9401 -8.6144 -0.6716 -0.6427 28.7475 8.7752 0.3470 -16.7855 0.0000 0.0000 0.0000 0.0000 -0.0000 0.0000 3.4625 1.9758 -0.9245 -4.8888 3.0803 5.7847 -0.0000 -0.0000 -0.0000 -18.7329 41.7474 -34.4700 -0.0000 -0.0000 -0.0000 -34.5232 -12.1750 6.3551 -26.8256 0.7479 6.9735 178.7499 -71.9202 -161.0962 5.3802 -2.6680 -0.3506 -0.0000 -0.0000 -0.0000 32.3426 6.6891 3.9075 33.8685 -9.9246 16.6426 -177.7995 80.2049 -160.2587 -5.1036 7.7163 -0.5112 0.0000 -0.0000 0.0000 13.6136 -4.7136 -15.0803 -0.2566 -1.1643 22.0356 -18.9180 1.0649 -5.2193 0.0000 0.0000 0.0000
1.4013 38.0050 26.0716 3.2404 -68.2692 3.3661 0.0000 -0.0000 0.0000 -9.0316 2.5261 -9.1281 -3.1545 -3.8167 31.6958 7.5984 0.7700 -24.2293 0.0000 0.0000 0.0000 0.0000 -0.0000 0.0000 5.2579 2.2808 -0.4795 -6.6820 3.8460 7.3392 -0.0000 -0.0000 -0.0000 -19.5972 40.8766 -36.2573 -0.0000 -0.0000 -0.0000 -35.9623 -12.4669 6.7076 -21.5700 -4.5664 6.4718 177.5772 -75.9677 -155.5390 6.8328 -2.9535 -0.4651 -0.0000 -0.0000 -0.0000 31.7726 6.5155 3.7842 33.3093 -7.4778 14.7301 -174.6170 84.2884 -153.4492 -5.0376 8.3236 -0.5251 0.0000 -0.0000 0.0000 13.6977 -6.8107 -17.1148 1.7798 2.1611 27.2618 -16.9446 -0.0992 -12.5261 0.0000 0.0000 0.0000
1.5236 37.7843 25.9078 2.8411 -67.4510 3.0077 0.0000 -0.0000 0.0000 -8.1553 3.8039 -8.9359 -5.0648 -6.0432 33.0900 7.3252 0.7982 -25.2103 0.0000 0.0000 0.0000 0.0000 -0.0000 0.0000 4.8557 2.1838 0.1045 -5.6519 3.5978 8.5251 -0.0000 -0.0000 -0.0000 -21.1130 40.0347 -38.8562 -0.0000 -0.0000 -0.0000 -37.9072 -13.0277 7.2753 -22.8806 -3.9270 3.9130 176.1152 -77.9763 -149.4467 7.2440 -2.9578 -0.4948 -0.0000 -0.0000 -0.0000 32.4552 6.5275 3.8569 34.3763 -8.8389 11.8520 -169.9247 86.2310 -146.3970 -7.8432 7.8563 -0.8307 0.0000 -0.0000 0.0000 14.0302 -9.0464 -17.9997 2.9769 3.7295 29.3693 -16.7655 -0.1381 -12.7970 0.0000 0.0000 0.0000
1.3742 38.6765 25.7760 2.8350 -66.4969 2.8540 0.0000 -0.0000 0.0000 -7.9440 2.4969 -7.1484 -3.9861 -5.2987 29.5141 7.5691 0.5079 -20.2085 0.0000 0.0000 0.0000 0.0000 -0.0000 0.0000 2.9358 1.7298 -1.3442 -3.1081 2.5719 9.8917 -0.0000 -0.0000 -0.0000 -21.0602 40.7456 -38.4466 -0.0000 -0.0000 -0.0000 -38.7223 -13.2380 7.5100 -30.8030 1.9550 0.9493 176.3996 -77.7123 -150.6678 7.5683 -2.4704 -0.4900 -0.0000 -0.0000 -0.0000 33.6533 6.6586 4.0294 37.2396 -13.0586 10.2608 -170.9396 86.1297 -148.5092 -7.0936 7.6076 -0.7313 0.0000 -0.0000 0.0000 14.1562 -8.9040 -16.0701 2.0777 3.0031 24.6779 -18.1514 0.7542 -6.9052 0.0000 0.0000 0.0000
1.0860 40.0297 25.6896 1.9913 -65.7016 5.1122 0.0000 -0.0000 0.0000 -7.8457 -1.2971 -5.7878 -1.0650 -1.5073 22.7068 9.1165 -0.0202 -11.7944 0.0000 0.0000 0.0000 0.0000 -0.0000 0.0000 1.9242 1.2075 -4.9078 -1.8874 1.6449 10.4400 -0.0000 -0.0000 -0.0000 -18.6136 42.7999 -33.6635 -0.0000 -0.0000 -0.0000 -38.8764 -13.1887 7.5148 -39.5134 9.5591 -2.0256 177.5396 -76.9660 -156.4711 7.5729 -2.0709 -0.4678 -0.0000 -0.0000 -0.0000 34.5825 6.7458 4.1604 40.1876 -18.5849 9.9318 -173.6602 85.2889 -153.2218 -6.6106 7.5737 -0.6753 0.0000 -0.0000 0.0000 13.8900 -4.3945 -14.2086 1.0305 -0.0710 16.2338 -17.9791 2.3247 3.4989 0.0000 0.0000 0.0000
